<mxfile host="65bd71144e">
    <diagram id="jlBOE_QpYp1HEN5nR49E" name="Page-1">
        <mxGraphModel dx="822" dy="611" grid="1" gridSize="10" guides="1" tooltips="1" connect="1" arrows="1" fold="1" page="1" pageScale="1" pageWidth="850" pageHeight="1100" background="none" math="0" shadow="0">
            <root>
                <mxCell id="0"/>
                <mxCell id="1" parent="0"/>
                <mxCell id="17" value="" style="edgeStyle=none;fillColor=#f9f7ed;strokeColor=#1a1a1a;entryX=0.5;entryY=0;entryDx=0;entryDy=0;exitX=0.25;exitY=0;exitDx=0;exitDy=0;rounded=1;labelBackgroundColor=default;labelBorderColor=none;fontColor=default;html=1;metaEdit=0;snapToPoint=0;fixDash=0;" parent="1" source="19" target="16" edge="1">
                    <mxGeometry relative="1" as="geometry">
                        <mxPoint x="120" y="111" as="sourcePoint"/>
                        <mxPoint x="250" y="80" as="targetPoint"/>
                        <Array as="points">
                            <mxPoint x="125" y="44"/>
                            <mxPoint x="400" y="44"/>
                        </Array>
                    </mxGeometry>
                </mxCell>
                <mxCell id="18" value="Registration info." style="edgeLabel;align=center;verticalAlign=middle;resizable=0;points=[];rotation=0;arcSize=20;imageAspect=1;imageAlign=center;labelBackgroundColor=default;labelBorderColor=none;fontColor=default;html=1;metaEdit=0;snapToPoint=0;fixDash=0;" parent="17" vertex="1" connectable="0">
                    <mxGeometry relative="1" as="geometry">
                        <mxPoint as="offset"/>
                    </mxGeometry>
                </mxCell>
                <mxCell id="43" value="ticket info" style="edgeStyle=none;html=1;entryX=0;entryY=0.5;entryDx=0;entryDy=0;labelBackgroundColor=#FFFFFF;labelBorderColor=none;strokeColor=#000000;fontColor=default;startArrow=none;startFill=0;endArrow=classic;endFill=1;" edge="1" parent="1" source="19" target="16">
                    <mxGeometry relative="1" as="geometry"/>
                </mxCell>
                <mxCell id="19" value="User" style="dashed=0;whitespace=wrap;labelBackgroundColor=default;labelBorderColor=none;fontColor=default;html=1;metaEdit=0;snapToPoint=0;fixDash=0;" parent="1" vertex="1">
                    <mxGeometry x="100" y="115" width="100" height="50" as="geometry"/>
                </mxCell>
                <mxCell id="20" value="" style="edgeStyle=none;rounded=1;sketch=0;entryX=0.925;entryY=0.758;entryDx=0;entryDy=0;entryPerimeter=0;strokeColor=#000000;exitX=0.5;exitY=1;exitDx=0;exitDy=0;labelBackgroundColor=default;labelBorderColor=none;fontColor=default;html=1;metaEdit=0;snapToPoint=0;fixDash=0;" parent="1" source="22" target="16" edge="1">
                    <mxGeometry relative="1" as="geometry">
                        <Array as="points">
                            <mxPoint x="673" y="198"/>
                            <mxPoint x="453" y="198"/>
                        </Array>
                    </mxGeometry>
                </mxCell>
                <mxCell id="21" value="update new plan" style="edgeLabel;align=center;verticalAlign=middle;resizable=0;points=[];labelBackgroundColor=default;labelBorderColor=none;fontColor=default;html=1;metaEdit=0;snapToPoint=0;fixDash=0;" parent="20" vertex="1" connectable="0">
                    <mxGeometry x="-0.3074" y="-1" relative="1" as="geometry">
                        <mxPoint x="-39" y="3" as="offset"/>
                    </mxGeometry>
                </mxCell>
                <mxCell id="22" value="Airlines" style="dashed=0;whitespace=wrap;labelBackgroundColor=default;labelBorderColor=none;fontColor=default;html=1;metaEdit=0;snapToPoint=0;fixDash=0;" parent="1" vertex="1">
                    <mxGeometry x="623" y="115" width="100" height="50" as="geometry"/>
                </mxCell>
                <mxCell id="24" value="ADMIN" style="dashed=0;whitespace=wrap;labelBackgroundColor=default;labelBorderColor=none;fontColor=default;html=1;metaEdit=0;snapToPoint=0;fixDash=0;" parent="1" vertex="1">
                    <mxGeometry x="350" y="300" width="100" height="50" as="geometry"/>
                </mxCell>
                <mxCell id="30" style="edgeStyle=none;html=1;entryX=0.038;entryY=0.363;entryDx=0;entryDy=0;entryPerimeter=0;" parent="1" target="28" edge="1">
                    <mxGeometry relative="1" as="geometry">
                        <mxPoint x="140" y="490" as="sourcePoint"/>
                    </mxGeometry>
                </mxCell>
                <mxCell id="32" value="Registration info." style="edgeLabel;html=1;align=center;verticalAlign=middle;resizable=0;points=[];" parent="30" vertex="1" connectable="0">
                    <mxGeometry x="-0.3688" y="-1" relative="1" as="geometry">
                        <mxPoint as="offset"/>
                    </mxGeometry>
                </mxCell>
                <mxCell id="25" value="user" style="html=1;dashed=0;whitespace=wrap;shape=mxgraph.dfd.externalEntity" parent="1" vertex="1">
                    <mxGeometry x="40" y="470" width="100" height="60" as="geometry"/>
                </mxCell>
                <mxCell id="31" style="edgeStyle=none;html=1;entryX=0;entryY=0;entryDx=100;entryDy=47.5;entryPerimeter=0;exitX=0.025;exitY=0.725;exitDx=0;exitDy=0;exitPerimeter=0;" parent="1" source="28" target="25" edge="1">
                    <mxGeometry relative="1" as="geometry">
                        <mxPoint x="270" y="512" as="sourcePoint"/>
                    </mxGeometry>
                </mxCell>
                <mxCell id="36" style="edgeStyle=none;html=1;entryX=0.113;entryY=0.067;entryDx=0;entryDy=0;entryPerimeter=0;" parent="1" source="28" target="34" edge="1">
                    <mxGeometry relative="1" as="geometry">
                        <Array as="points">
                            <mxPoint x="530" y="500"/>
                        </Array>
                    </mxGeometry>
                </mxCell>
                <mxCell id="40" value="user information" style="edgeLabel;html=1;align=center;verticalAlign=middle;resizable=0;points=[];" parent="36" vertex="1" connectable="0">
                    <mxGeometry x="-0.5418" y="-2" relative="1" as="geometry">
                        <mxPoint x="16" y="-2" as="offset"/>
                    </mxGeometry>
                </mxCell>
                <mxCell id="28" value="New User&lt;br&gt;registration" style="shape=ellipse;html=1;dashed=0;whitespace=wrap;aspect=fixed;perimeter=ellipsePerimeter;" parent="1" vertex="1">
                    <mxGeometry x="320" y="460" width="80" height="80" as="geometry"/>
                </mxCell>
                <mxCell id="34" value="D1&lt;span style=&quot;white-space: pre;&quot;&gt;&#9;&lt;/span&gt;&lt;span style=&quot;white-space: pre;&quot;&gt;&#9;&lt;/span&gt;User database" style="html=1;dashed=0;whitespace=wrap;shape=mxgraph.dfd.dataStoreID;align=left;spacingLeft=3;points=[[0,0],[0.5,0],[1,0],[0,0.5],[1,0.5],[0,1],[0.5,1],[1,1]];" parent="1" vertex="1">
                    <mxGeometry x="510" y="560" width="160" height="30" as="geometry"/>
                </mxCell>
                <mxCell id="4" value="" style="edgeStyle=none;entryX=0;entryY=0.5;entryDx=0;entryDy=0;labelBackgroundColor=default;labelBorderColor=none;fontColor=default;html=1;metaEdit=0;snapToPoint=0;fixDash=0;" parent="1" source="16" target="22" edge="1">
                    <mxGeometry relative="1" as="geometry"/>
                </mxCell>
                <mxCell id="7" value="" style="edgeStyle=none;fillColor=#a20025;strokeColor=#1d1b1b;labelBackgroundColor=default;labelBorderColor=none;fontColor=default;html=1;metaEdit=0;snapToPoint=0;fixDash=0;" parent="1" source="16" target="22" edge="1">
                    <mxGeometry relative="1" as="geometry"/>
                </mxCell>
                <mxCell id="8" value="Ticket Confirmation" style="edgeLabel;align=center;verticalAlign=middle;resizable=0;points=[];labelBackgroundColor=default;labelBorderColor=none;fontColor=default;html=1;metaEdit=0;snapToPoint=0;fixDash=0;" parent="7" vertex="1" connectable="0">
                    <mxGeometry x="-0.1818" relative="1" as="geometry">
                        <mxPoint as="offset"/>
                    </mxGeometry>
                </mxCell>
                <mxCell id="9" value="flight details" style="edgeStyle=none;fillColor=#008a00;strokeColor=#005700;labelBackgroundColor=default;labelBorderColor=none;fontColor=default;html=1;metaEdit=0;snapToPoint=0;fixDash=0;startArrow=classic;startFill=1;endArrow=none;endFill=0;entryX=0.11;entryY=0.021;entryDx=0;entryDy=0;entryPerimeter=0;" parent="1" source="16" target="24" edge="1">
                    <mxGeometry relative="1" as="geometry">
                        <Array as="points">
                            <mxPoint x="360" y="260"/>
                        </Array>
                    </mxGeometry>
                </mxCell>
                <mxCell id="10" value="" style="edgeStyle=none;rounded=1;entryX=0.5;entryY=0;entryDx=0;entryDy=0;fillColor=#a20025;strokeColor=#000000;exitX=0;exitY=0;exitDx=0;exitDy=0;labelBackgroundColor=default;labelBorderColor=none;fontColor=default;html=1;metaEdit=0;snapToPoint=0;fixDash=0;" parent="1" source="16" target="19" edge="1">
                    <mxGeometry relative="1" as="geometry">
                        <mxPoint x="360" y="89" as="sourcePoint"/>
                        <Array as="points">
                            <mxPoint x="150" y="98"/>
                        </Array>
                    </mxGeometry>
                </mxCell>
                <mxCell id="11" value="Registration number" style="edgeLabel;align=center;verticalAlign=middle;resizable=0;points=[];arcSize=20;labelBackgroundColor=default;labelBorderColor=none;fontColor=default;html=1;metaEdit=0;snapToPoint=0;fixDash=0;" parent="10" vertex="1" connectable="0">
                    <mxGeometry relative="1" as="geometry">
                        <mxPoint as="offset"/>
                    </mxGeometry>
                </mxCell>
                <mxCell id="12" value="" style="edgeStyle=none;rounded=1;sketch=0;entryX=0.75;entryY=1;entryDx=0;entryDy=0;strokeColor=#000000;exitX=0;exitY=1;exitDx=0;exitDy=0;labelBackgroundColor=default;labelBorderColor=none;fontColor=default;html=1;metaEdit=0;snapToPoint=0;fixDash=0;" parent="1" source="16" target="19" edge="1">
                    <mxGeometry relative="1" as="geometry">
                        <Array as="points">
                            <mxPoint x="177" y="185"/>
                        </Array>
                    </mxGeometry>
                </mxCell>
                <mxCell id="13" value="Ticket reservation" style="edgeLabel;align=center;verticalAlign=middle;resizable=0;points=[];arcSize=20;labelBackgroundColor=default;labelBorderColor=none;fontColor=default;html=1;metaEdit=0;snapToPoint=0;fixDash=0;" parent="12" vertex="1" connectable="0">
                    <mxGeometry relative="1" as="geometry">
                        <mxPoint as="offset"/>
                    </mxGeometry>
                </mxCell>
                <mxCell id="16" value="AIR TICKET&lt;br&gt;RESERVATION &lt;br&gt;SYSTEM" style="shape=ellipse;dashed=0;whitespace=wrap;aspect=fixed;perimeter=ellipsePerimeter;labelBackgroundColor=default;labelBorderColor=none;fontColor=default;html=1;metaEdit=0;snapToPoint=0;fixDash=0;" parent="1" vertex="1">
                    <mxGeometry x="340" y="80" width="120" height="120" as="geometry"/>
                </mxCell>
                <mxCell id="23" value="receive flight&amp;nbsp;&lt;br&gt;details" style="edgeStyle=none;exitX=0.893;exitY=-0.034;exitDx=0;exitDy=0;entryX=0.782;entryY=0.946;entryDx=0;entryDy=0;fillColor=#d80073;strokeColor=#000000;labelBackgroundColor=default;labelBorderColor=none;fontColor=default;html=1;metaEdit=0;snapToPoint=0;fixDash=0;endArrow=none;endFill=0;startArrow=classic;startFill=1;exitPerimeter=0;entryPerimeter=0;" parent="1" source="24" target="16" edge="1">
                    <mxGeometry relative="1" as="geometry">
                        <mxPoint x="410" y="240" as="targetPoint"/>
                        <Array as="points">
                            <mxPoint x="434" y="230"/>
                        </Array>
                    </mxGeometry>
                </mxCell>
            </root>
        </mxGraphModel>
    </diagram>
</mxfile>